<?xml version="1.0" standalone="no"?>
<!DOCTYPE svg PUBLIC "-//W3C//DTD SVG 20010904//EN"
 "http://www.w3.org/TR/2001/REC-SVG-20010904/DTD/svg10.dtd">
<svg version="1.0" xmlns="http://www.w3.org/2000/svg"
 width="873.000000pt" height="697.000000pt" viewBox="0 0 873.000000 697.000000"
 preserveAspectRatio="xMidYMid meet">

<g transform="translate(0.000000,697.000000) scale(0.100000,-0.100000)"
fill="#000000" stroke="none">
<path d="M0 3485 l0 -3485 4365 0 4365 0 0 3485 0 3485 -4365 0 -4365 0 0
-3485z m2479 2861 c37 -37 41 -47 32 -64 -13 -25 -69 -72 -85 -72 -6 0 -31 20
-55 44 l-43 44 42 46 c23 25 48 46 54 46 7 0 31 -20 55 -44z m1132 -63 c32
-31 59 -63 59 -72 0 -9 -29 -45 -64 -80 l-64 -64 -56 53 -56 53 -44 -37 c-24
-20 -48 -36 -52 -36 -15 0 -84 74 -84 89 0 20 70 91 90 91 9 0 27 -11 40 -25
13 -14 28 -25 35 -25 6 0 35 25 65 55 30 30 58 55 63 55 5 0 35 -25 68 -57z
m905 -47 c29 -9 79 -34 112 -56 38 -25 331 -315 808 -797 801 -811 794 -802
824 -932 18 -76 8 -203 -21 -271 -33 -81 -64 -121 -207 -267 l-128 -133 -36
26 c-43 31 -82 27 -118 -11 -29 -30 -29 -68 0 -107 l22 -30 -28 -29 -28 -29
-62 60 c-85 82 -97 81 -196 -18 -51 -52 -78 -86 -78 -101 0 -14 23 -47 62 -87
l62 -65 -237 -237 -237 -237 -50 3 c-46 4 -53 1 -86 -32 -34 -34 -36 -40 -32
-86 l5 -49 -116 -115 c-131 -129 -193 -166 -312 -186 -92 -16 -187 0 -279 47
-63 31 -122 86 -602 560 -725 716 -996 990 -1030 1043 -94 147 -90 369 10 511
17 24 91 104 165 178 l135 134 27 -22 c81 -63 185 43 110 113 l-24 23 34 33
35 34 53 -51 c61 -59 88 -75 114 -67 26 10 143 125 154 152 12 31 -1 54 -64
120 l-52 52 240 240 240 241 37 -6 c75 -13 135 44 125 119 l-6 43 119 117
c124 122 192 165 291 186 59 12 182 5 245 -14z m-1684 -233 c90 -86 89 -83 16
-159 -95 -99 -89 -99 -169 -13 -38 40 -69 78 -69 83 0 16 132 146 148 146 7 0
41 -26 74 -57z m-648 -163 c25 -27 46 -54 46 -60 0 -22 -92 -110 -115 -110
-23 0 -115 88 -115 110 0 22 92 110 115 110 14 0 40 -19 69 -50z m1212 -33
c41 -40 74 -81 74 -91 0 -21 -139 -166 -160 -166 -16 0 -159 149 -160 167 0
12 150 163 163 163 5 0 42 -33 83 -73z m-734 -164 l88 -88 63 63 c34 34 70 62
78 62 18 0 129 -112 129 -130 0 -16 -99 -118 -122 -126 -16 -5 -35 8 -84 57
l-64 64 -88 -88 c-48 -48 -94 -87 -102 -87 -19 0 -180 160 -180 180 0 19 160
180 180 180 8 0 54 -39 102 -87z m-33 -437 c28 -30 51 -58 51 -61 0 -14 -104
-115 -119 -115 -17 0 -121 98 -121 114 0 17 103 116 121 116 9 0 39 -24 68
-54z m3610 -1597 c28 -27 51 -53 51 -57 0 -4 -25 -32 -55 -62 l-55 -55 -57 58
-58 57 55 55 c30 30 57 55 61 55 3 0 29 -23 58 -51z m33 -366 c43 -43 78 -84
78 -93 0 -19 -150 -170 -170 -170 -16 0 -170 149 -170 165 0 13 162 175 175
175 5 0 45 -35 87 -77z m-355 -25 c29 -29 53 -59 53 -67 0 -16 -98 -121 -113
-121 -13 0 -127 103 -127 114 0 14 111 126 124 126 6 0 34 -23 63 -52z m-409
-151 c39 -40 72 -77 72 -82 0 -6 -34 -44 -75 -85 l-75 -74 -75 74 c-41 41 -75
79 -75 85 0 10 140 155 150 155 3 0 38 -33 78 -73z m1174 -94 c26 -26 48 -51
48 -55 0 -20 -84 -98 -105 -98 -21 0 -105 78 -105 97 0 11 93 103 104 103 6 0
32 -21 58 -47z m-562 -187 c0 -14 -122 -136 -135 -136 -6 0 -41 30 -77 68
l-67 67 70 75 69 74 70 -69 c39 -38 70 -74 70 -79z m-870 -221 c24 -25 51 -45
59 -45 8 0 32 17 53 37 l38 37 40 -39 c22 -21 40 -44 40 -49 0 -14 -61 -76
-75 -76 -6 0 -22 11 -35 25 -13 14 -30 25 -39 25 -8 0 -41 -25 -72 -56 l-57
-57 -56 47 c-78 67 -79 77 -15 142 29 30 58 54 64 54 6 0 31 -20 55 -45z
m1107 -117 c18 -18 33 -39 33 -47 0 -18 -59 -81 -75 -81 -6 0 -29 18 -50 40
l-39 40 39 40 c21 22 44 40 49 40 6 0 25 -14 43 -32z m-2767 -876 c45 -22 61
-55 58 -117 l-3 -50 -42 -3 -43 -3 0 50 0 51 -220 0 -220 0 2 -282 3 -283 215
0 215 0 3 48 3 48 42 -3 42 -3 3 -50 c3 -62 -13 -95 -58 -117 -30 -16 -64 -18
-245 -17 -241 0 -271 6 -297 59 -16 31 -18 69 -18 318 0 237 3 288 16 313 27
52 56 58 294 59 185 0 220 -2 250 -18z m900 -7 c55 -32 70 -73 70 -193 0 -65
-5 -115 -14 -136 -14 -33 -70 -76 -100 -76 -9 0 -16 -5 -16 -11 0 -6 29 -75
65 -154 36 -79 65 -146 65 -149 0 -3 -21 -6 -48 -6 l-47 0 -70 155 -70 155
-127 0 -128 0 0 -155 0 -155 -45 0 -45 0 0 376 0 376 238 -4 c217 -3 240 -5
272 -23z m660 -262 c80 -158 149 -287 154 -287 4 -1 74 128 155 286 l146 287
53 1 52 0 0 -375 0 -375 -45 0 -45 0 0 280 c0 217 -3 280 -12 280 -7 0 -76
-125 -153 -277 -77 -152 -145 -278 -150 -279 -6 -2 -73 121 -151 273 -77 152
-146 279 -152 281 -9 3 -12 -67 -12 -277 l0 -281 -45 0 -45 0 0 375 0 375 53
0 52 0 145 -287z"/>
<path d="M3669 5471 c-37 -37 -37 -70 -1 -104 39 -38 82 -36 116 4 14 17 26
40 26 51 0 29 -53 78 -85 78 -16 0 -38 -12 -56 -29z"/>
<path d="M3872 5154 c-53 -27 -92 -67 -111 -116 -7 -18 -11 -247 -12 -638 -1
-608 -1 -610 21 -655 26 -53 76 -98 129 -114 26 -7 186 -11 510 -11 445 0 474
1 509 19 20 11 49 32 64 48 48 51 58 90 58 238 l0 135 -38 0 c-22 0 -73 -3
-115 -6 l-76 -7 -3 -96 -3 -96 -415 0 -415 0 -3 548 -2 547 420 0 420 0 0
-100 0 -100 115 0 115 0 0 118 c0 141 -10 181 -58 234 -72 79 -57 78 -588 78
l-470 0 -52 -26z"/>
<path d="M4954 3336 c-39 -39 -42 -63 -14 -98 31 -40 72 -53 107 -34 67 34 77
91 25 138 -43 38 -76 36 -118 -6z"/>
<path d="M4070 1370 l0 -130 179 0 c226 0 227 1 219 156 -5 106 -1 104 -220
104 l-178 0 0 -130z"/>
</g>
</svg>
